<svg width="510" height="510" xmlns="http://www.w3.org/2000/svg" viewBox="0 0 510.2 510.2"><path d="M0 428c86.7 95.9 235.2 92 307.9 67.5 78.1-26.4 149.3-77 188.8-186 30.4-83.9 5.6-224.8-34.8-309.5H0v428z" fill="#fff"/><path d="M229.4 336.1c-1.6 0-2.9 1-3.4 2.3l-6.9 17.4-.6 2-.5-2-5.3-16.9c0-.1 0-.1-.1-.2-.5-1.4-1.8-2.4-3.4-2.4h-8.6c-1.9.1-3.5 1.7-3.5 3.6 0 .5.3 1.2.4 1.9l1.1 3.5-4.2 10.6-.7 2-.5-2-5.3-16.9c-.1-.1-.1-.1-.1-.2-.5-1.4-1.9-2.4-3.4-2.4h-8.6c-1.9.1-3.5 1.7-3.5 3.6 0 .5.2 1.2.4 1.9l12.8 38.2c.4 1.6 1.8 2.7 3.5 2.7 1.6 0 3-1.1 3.4-2.5l9-22.7.7-2 .5 2 7.6 22.5c.4 1.6 1.8 2.7 3.5 2.7 1.6 0 3-1.1 3.5-2.6l15.2-38.7c.2-.5.4-1 .4-1.6.3-2.1-1.4-3.8-3.4-3.8zm64 0c-1.6 0-2.9 1-3.4 2.3l-6.8 17.4-.7 2-.5-2-5.3-16.9v-.2c-.5-1.4-1.9-2.4-3.4-2.4h-8.6c-1.9.1-3.4 1.7-3.4 3.6 0 .5.2 1.2.4 1.9l1.1 3.5-4.2 10.6-.7 2-.5-2-5.3-16.9c-.1-.1-.1-.1-.1-.2-.5-1.4-1.8-2.4-3.4-2.4H240c-2 .1-3.5 1.7-3.5 3.6 0 .5.2 1.2.4 1.9l12.9 38.2c.4 1.6 1.8 2.7 3.5 2.7 1.6 0 3-1.1 3.4-2.5l9-22.7.6-2 .6 2 7.5 22.5c.4 1.6 1.8 2.7 3.5 2.7 1.6 0 3-1.1 3.5-2.6l15.2-38.7c.2-.5.4-1 .4-1.6 0-2.1-1.7-3.8-3.6-3.8zm14.7-109.7c8.2-4.3 8.1-22.7-2.9-29.3-8.9-5.3-13.8 1.8-17 10.5-.2.7-.3 1.4.1 1.7 5.5 6.2 6.1 24.3 19.8 17.1zm-55.8-35.6c-14.7 7.8-13.9 24.7-5.3 29 10.5 4.4 14.5-8.6 20.2-13.3.3-.3.6-.8.6-1.2-.1-9.9-5.3-19.2-15.5-14.5zm12 46.6c2.9 1 4.7 1.3 7.2 4.5 2.3 4.4 1.3-1.3 9.8-2.2 5.7-.6 4.4-5.8.1-7.1-3.8-1.1-9.6-1.9-13.8-1.8-7.3.1-7.1 5.6-3.3 6.6zm44.8-78.2c3 1.3 8.6 5.6 11.2 9.2 5.9 8.2 15-.3 18.6-7.3 2.6-5.2 1.5-12.6-5.3-19-6.2-5.9-18.6-8.2-25.7 3.6-4.3 7.3-3.4 11.5 1.2 13.5zM204.1 311c1.5 0 2.6-.9 2.9-2.5h-1c-.1.9-.9 1.5-1.9 1.5-1.4 0-2.3-1.2-2.3-2.6 0-1.5.8-2.5 2.3-2.5 1 0 1.7.6 1.9 1.4h1c-.2-1.6-1.4-2.5-2.9-2.5-2.1 0-3.4 1.6-3.4 3.6s1.4 3.6 3.4 3.6zm133.1 13.5c0-4-3.2-7.2-7.2-7.2s-7.2 3.2-7.2 7.2 3.2 7.2 7.2 7.2 7.2-3.2 7.2-7.2zm-13.1 0c0-3.3 2.7-6 6-6s6 2.7 6 6-2.7 6-6 6c-3.4 0-6-2.7-6-6zM204 314.6c4 0 7.2-3.2 7.2-7.2 0-3.9-3.2-7.2-7.2-7.2s-7.2 3.2-7.2 7.2 3.2 7.2 7.2 7.2zm0-13.2c3.3 0 6 2.7 6 6s-2.7 6-6 6-6-2.7-6-6 2.7-6 6-6zm130.9 34.8h-30c-1.7 0-3.1 1.4-3.1 3.1v39.8c.1 1.8 1.6 3.3 3.4 3.3h8.5c1.8-.1 3.3-1.5 3.3-3.4v-18.6h12.2c1.8 0 3.2-1.5 3.2-3.3 0-1.8-1.5-3.3-3.3-3.3H317v-10.6h18c1.9-.1 3.4-1.6 3.4-3.5s-1.6-3.5-3.5-3.5zm-2-8.3l-1.9-3c1-.1 1.8-.7 1.8-1.8 0-1.4-.8-1.9-2.4-1.9h-2.6v6.8h1.1v-3h1.2l1.8 2.9h1zm-4.1-3.8V322h1.4c.7 0 1.5.2 1.5 1 0 1.1-.8 1.1-1.7 1.1h-1.2zm5.8-126.4c.6 21.6-12.3 44.7-39.9 44.8-7.1 0-4.9 11.3-17.8 5.6-9.3-6.3-14.6 6.1-21.2-7.2-1.4-3.8-3.6-5.3-6.4-6-27.2-6.7-35.9-44.2-11.9-74.4 4.7 2.8 6.5 3.3 11.5-1.4 2.6-2.4 7.1-5.1 9.5-6 5.8-2.2 8.9-4.7 3.9-15.7-6.4-14.3-19.5-10.2-25.5-5.3-6.8 5.6-11.5 14.6-2.8 25.2-24.4 16.4-28.6 36.6-28 54.2.6 18.7-4.2 17.1 1.8 36.1.5 1.7-.6 1.6-1.5 1.1-25.4-16.3-39.1-65.9.5-93.2.9-.8.5-1.8-2.7.1-34.3 18.1-37.4 53.2-31.7 76.9 2.8 11.5-1.4 13.6 3 28.6 10.2 31.4 18.9 33.8 31.2 34.8 22.4 0 7.2-12.3 8-27.8 0-.9 1.1-1.3 1.7.5 12.3 27.6 21 52.7 53.3 50.4 18.7-2.4 8.3-11.7 7.2-17-13.8-45.7 19.6-56.5 10.2-11.9-6.2 25.5 13.5 23 27.4 13.8 14.3-9.4 32.3-71.5 21.9-105.7-.7-2.4-1.8-2.2-1.7-.5zM281.7 252c-3.1 8.2-19.2 5.4-19.7-2.5 0-.3.4-.2.6-.2 7.2 1.7 14 2.5 18.6 2.4.2 0 .6-.1.5.3z"/></svg>